<svg width="20" height="11" viewBox="0 0 20 11" fill="none" xmlns="http://www.w3.org/2000/svg">
<path d="M1.38821 0.246619L10.0009 9.0135L18.6136 0.246619C18.7674 0.0896674 18.974 0.00179931 19.1891 0.00179931C19.4042 0.00179931 19.6108 0.0896674 19.7647 0.246619C19.8392 0.322851 19.8984 0.413841 19.9388 0.514261C19.9792 0.614681 20 0.722512 20 0.831438C20 0.940363 19.9792 1.04819 19.9388 1.14861C19.8984 1.24903 19.8392 1.34002 19.7647 1.41626L10.6023 10.7446C10.4414 10.9083 10.2256 11 10.0009 11C9.77619 11 9.56038 10.9083 9.39948 10.7446L0.237099 1.41806C0.162064 1.34177 0.102425 1.25055 0.0617027 1.1498C0.0209805 1.04905 0 0.940797 0 0.831438C0 0.722079 0.0209805 0.613827 0.0617027 0.513074C0.102425 0.412321 0.162064 0.321108 0.237099 0.244819C0.390979 0.0878672 0.597551 0 0.812656 0C1.02776 0 1.23433 0.0878672 1.38821 0.244819V0.246619Z" fill="black"/>
</svg>
