<svg width="30" height="31" viewBox="0 0 30 31" fill="none" xmlns="http://www.w3.org/2000/svg">
<g clip-path="url(#clip0_52_19)">
<path d="M6.25 16.75H21.075L16.5375 22.2C16.4324 22.3264 16.3533 22.4723 16.3046 22.6292C16.2559 22.7862 16.2386 22.9512 16.2537 23.1149C16.2842 23.4454 16.4447 23.7503 16.7 23.9625C16.9553 24.1747 17.2844 24.2768 17.6149 24.2463C17.9454 24.2158 18.2503 24.0553 18.4625 23.8L24.7125 16.3C24.7545 16.2403 24.7922 16.1777 24.825 16.1125C24.825 16.05 24.8875 16.0125 24.9125 15.95C24.9692 15.8067 24.9988 15.6541 25 15.5C24.9988 15.3459 24.9692 15.1933 24.9125 15.05C24.9125 14.9875 24.85 14.95 24.825 14.8875C24.7922 14.8223 24.7545 14.7597 24.7125 14.7L18.4625 7.2C18.345 7.0589 18.1978 6.94542 18.0314 6.86765C17.8651 6.78987 17.6836 6.7497 17.5 6.75C17.2079 6.74943 16.9249 6.85115 16.7 7.0375C16.5734 7.14244 16.4688 7.27131 16.3921 7.41675C16.3154 7.56218 16.2682 7.72132 16.2531 7.88504C16.238 8.04876 16.2553 8.21385 16.3041 8.37085C16.3529 8.52786 16.4322 8.67369 16.5375 8.8L21.075 14.25H6.25C5.91848 14.25 5.60054 14.3817 5.36612 14.6161C5.1317 14.8505 5 15.1685 5 15.5C5 15.8315 5.1317 16.1495 5.36612 16.3839C5.60054 16.6183 5.91848 16.75 6.25 16.75Z" fill="white"/>
</g>
<defs>
<clipPath id="clip0_52_19">
<rect width="30" height="30" fill="white" transform="translate(0 0.5)"/>
</clipPath>
</defs>
</svg>
