<svg width="56" height="56" viewBox="0 0 56 56" fill="none" xmlns="http://www.w3.org/2000/svg">
<path d="M34.347 20.51L24.337 30.5433L20.487 26.6933C20.2778 26.449 20.0204 26.2507 19.7309 26.1106C19.4414 25.9705 19.1261 25.8918 18.8048 25.8794C18.4834 25.867 18.163 25.9212 17.8636 26.0385C17.5642 26.1558 17.2922 26.3337 17.0648 26.5611C16.8374 26.7885 16.6595 27.0604 16.5422 27.3599C16.4249 27.6593 16.3707 27.9797 16.3831 28.3011C16.3956 28.6224 16.4743 28.9377 16.6143 29.2272C16.7544 29.5167 16.9527 29.7741 17.197 29.9833L22.6803 35.49C22.8984 35.7062 23.1569 35.8773 23.4412 35.9934C23.7255 36.1095 24.0299 36.1684 24.337 36.1666C24.9491 36.164 25.5357 35.921 25.9703 35.49L37.637 23.8233C37.8557 23.6064 38.0293 23.3483 38.1478 23.064C38.2662 22.7796 38.3272 22.4747 38.3272 22.1666C38.3272 21.8586 38.2662 21.5536 38.1478 21.2693C38.0293 20.9849 37.8557 20.7269 37.637 20.51C37.1998 20.0754 36.6084 19.8314 35.992 19.8314C35.3756 19.8314 34.7842 20.0754 34.347 20.51ZM28.0003 4.66663C23.3854 4.66663 18.8742 6.0351 15.037 8.599C11.1999 11.1629 8.20919 14.8071 6.44315 19.0707C4.6771 23.3343 4.21502 28.0258 5.11535 32.5521C6.01567 37.0783 8.23795 41.2359 11.5012 44.4991C14.7644 47.7623 18.922 49.9846 23.4482 50.8849C27.9745 51.7853 32.666 51.3232 36.9296 49.5571C41.1932 47.7911 44.8374 44.8004 47.4013 40.9633C49.9652 37.1261 51.3337 32.6149 51.3337 28C51.3337 24.9358 50.7301 21.9016 49.5575 19.0707C48.3849 16.2397 46.6662 13.6675 44.4995 11.5008C42.3328 9.3341 39.7605 7.61538 36.9296 6.44277C34.0987 5.27016 31.0645 4.66663 28.0003 4.66663ZM28.0003 46.6666C24.3084 46.6666 20.6994 45.5718 17.6297 43.5207C14.56 41.4696 12.1674 38.5543 10.7546 35.1434C9.34175 31.7325 8.97209 27.9793 9.69234 24.3583C10.4126 20.7373 12.1904 17.4112 14.801 14.8006C17.4116 12.1901 20.7377 10.4122 24.3587 9.69197C27.9796 8.97171 31.7329 9.34137 35.1438 10.7542C38.5546 12.167 41.47 14.5596 43.5211 17.6293C45.5722 20.699 46.667 24.308 46.667 28C46.667 32.9507 44.7003 37.6986 41.1997 41.1993C37.699 44.7 32.951 46.6666 28.0003 46.6666Z" fill="#0092E4"/>
</svg>
