<svg width="183" height="46" viewBox="0 0 183 46" fill="none" xmlns="http://www.w3.org/2000/svg">
<path d="M1 1L182 1V32.68H50.4439H25.722L11.5951 45V32.68H1V1Z" fill="#FF0000" stroke="#FF0000" stroke-width="2" stroke-linecap="round" stroke-linejoin="round"/>
<path d="M40.9267 20.077C40.362 20.077 39.856 19.9853 39.4087 19.802C38.9614 19.6187 38.602 19.3473 38.3307 18.988C38.0667 18.6287 37.9274 18.196 37.9127 17.69H39.9147C39.944 17.976 40.043 18.196 40.2117 18.35C40.3804 18.4967 40.6004 18.57 40.8717 18.57C41.1504 18.57 41.3704 18.5077 41.5317 18.383C41.693 18.251 41.7737 18.0713 41.7737 17.844C41.7737 17.6533 41.7077 17.4957 41.5757 17.371C41.451 17.2463 41.2934 17.1437 41.1027 17.063C40.9194 16.9823 40.6554 16.8907 40.3107 16.788C39.812 16.634 39.405 16.48 39.0897 16.326C38.7744 16.172 38.503 15.9447 38.2757 15.644C38.0484 15.3433 37.9347 14.951 37.9347 14.467C37.9347 13.7483 38.195 13.1873 38.7157 12.784C39.2364 12.3733 39.9147 12.168 40.7507 12.168C41.6014 12.168 42.287 12.3733 42.8077 12.784C43.3284 13.1873 43.607 13.752 43.6437 14.478H41.6087C41.594 14.2287 41.5024 14.0343 41.3337 13.895C41.165 13.7483 40.9487 13.675 40.6847 13.675C40.4574 13.675 40.274 13.7373 40.1347 13.862C39.9954 13.9793 39.9257 14.1517 39.9257 14.379C39.9257 14.6283 40.043 14.8227 40.2777 14.962C40.5124 15.1013 40.879 15.2517 41.3777 15.413C41.8764 15.5817 42.2797 15.743 42.5877 15.897C42.903 16.051 43.1744 16.2747 43.4017 16.568C43.629 16.8613 43.7427 17.239 43.7427 17.701C43.7427 18.141 43.629 18.5407 43.4017 18.9C43.1817 19.2593 42.859 19.5453 42.4337 19.758C42.0084 19.9707 41.506 20.077 40.9267 20.077ZM45.8463 13.224C45.5163 13.224 45.2449 13.1287 45.0323 12.938C44.8269 12.74 44.7243 12.498 44.7243 12.212C44.7243 11.9187 44.8269 11.6767 45.0323 11.486C45.2449 11.288 45.5163 11.189 45.8463 11.189C46.1689 11.189 46.4329 11.288 46.6383 11.486C46.8509 11.6767 46.9573 11.9187 46.9573 12.212C46.9573 12.498 46.8509 12.74 46.6383 12.938C46.4329 13.1287 46.1689 13.224 45.8463 13.224ZM46.7813 13.862V20H44.9003V13.862H46.7813ZM50.0254 11.86V20H48.1444V11.86H50.0254ZM51.0145 16.92C51.0145 16.2893 51.1319 15.7357 51.3665 15.259C51.6085 14.7823 51.9349 14.4157 52.3455 14.159C52.7562 13.9023 53.2145 13.774 53.7205 13.774C54.1532 13.774 54.5309 13.862 54.8535 14.038C55.1835 14.214 55.4365 14.445 55.6125 14.731V13.862H57.4935V20H55.6125V19.131C55.4292 19.417 55.1725 19.648 54.8425 19.824C54.5199 20 54.1422 20.088 53.7095 20.088C53.2109 20.088 52.7562 19.9597 52.3455 19.703C51.9349 19.439 51.6085 19.0687 51.3665 18.592C51.1319 18.108 51.0145 17.5507 51.0145 16.92ZM55.6125 16.931C55.6125 16.4617 55.4805 16.0913 55.2165 15.82C54.9599 15.5487 54.6445 15.413 54.2705 15.413C53.8965 15.413 53.5775 15.5487 53.3135 15.82C53.0569 16.084 52.9285 16.4507 52.9285 16.92C52.9285 17.3893 53.0569 17.7633 53.3135 18.042C53.5775 18.3133 53.8965 18.449 54.2705 18.449C54.6445 18.449 54.9599 18.3133 55.2165 18.042C55.4805 17.7707 55.6125 17.4003 55.6125 16.931ZM62.6274 13.796C63.3314 13.796 63.896 14.0307 64.3214 14.5C64.7467 14.962 64.9594 15.6 64.9594 16.414V20H63.0894V16.667C63.0894 16.2563 62.983 15.9373 62.7704 15.71C62.5577 15.4827 62.2717 15.369 61.9124 15.369C61.553 15.369 61.267 15.4827 61.0544 15.71C60.8417 15.9373 60.7354 16.2563 60.7354 16.667V20H58.8544V11.86H60.7354V14.687C60.926 14.4157 61.1864 14.1993 61.5164 14.038C61.8464 13.8767 62.2167 13.796 62.6274 13.796ZM70.0175 20L68.1475 17.426V20H66.2665V11.86H68.1475V16.359L70.0065 13.862H72.3275L69.7755 16.942L72.3495 20H70.0175ZM72.6923 16.92C72.6923 16.2893 72.8096 15.7357 73.0443 15.259C73.2863 14.7823 73.6126 14.4157 74.0233 14.159C74.4339 13.9023 74.8923 13.774 75.3983 13.774C75.8309 13.774 76.2086 13.862 76.5313 14.038C76.8613 14.214 77.1143 14.445 77.2903 14.731V13.862H79.1713V20H77.2903V19.131C77.1069 19.417 76.8503 19.648 76.5203 19.824C76.1976 20 75.8199 20.088 75.3873 20.088C74.8886 20.088 74.4339 19.9597 74.0233 19.703C73.6126 19.439 73.2863 19.0687 73.0443 18.592C72.8096 18.108 72.6923 17.5507 72.6923 16.92ZM77.2903 16.931C77.2903 16.4617 77.1583 16.0913 76.8943 15.82C76.6376 15.5487 76.3223 15.413 75.9483 15.413C75.5743 15.413 75.2553 15.5487 74.9913 15.82C74.7346 16.084 74.6063 16.4507 74.6063 16.92C74.6063 17.3893 74.7346 17.7633 74.9913 18.042C75.2553 18.3133 75.5743 18.449 75.9483 18.449C76.3223 18.449 76.6376 18.3133 76.8943 18.042C77.1583 17.7707 77.2903 17.4003 77.2903 16.931ZM84.2721 13.796C84.9908 13.796 85.5628 14.0307 85.9881 14.5C86.4208 14.962 86.6371 15.6 86.6371 16.414V20H84.7671V16.667C84.7671 16.2563 84.6608 15.9373 84.4481 15.71C84.2354 15.4827 83.9494 15.369 83.5901 15.369C83.2308 15.369 82.9448 15.4827 82.7321 15.71C82.5194 15.9373 82.4131 16.2563 82.4131 16.667V20H80.5321V13.862H82.4131V14.676C82.6038 14.4047 82.8604 14.192 83.1831 14.038C83.5058 13.8767 83.8688 13.796 84.2721 13.796ZM91.2213 13.224C90.8913 13.224 90.6199 13.1287 90.4073 12.938C90.2019 12.74 90.0993 12.498 90.0993 12.212C90.0993 11.9187 90.2019 11.6767 90.4073 11.486C90.6199 11.288 90.8913 11.189 91.2213 11.189C91.5439 11.189 91.8079 11.288 92.0133 11.486C92.2259 11.6767 92.3323 11.9187 92.3323 12.212C92.3323 12.498 92.2259 12.74 92.0133 12.938C91.8079 13.1287 91.5439 13.224 91.2213 13.224ZM92.1563 13.862V20H90.2753V13.862H92.1563ZM96.0164 20.088C95.4811 20.088 95.0044 19.9963 94.5864 19.813C94.1684 19.6297 93.8384 19.3803 93.5964 19.065C93.3544 18.7423 93.2187 18.383 93.1894 17.987H95.0484C95.0704 18.1997 95.1694 18.372 95.3454 18.504C95.5214 18.636 95.7377 18.702 95.9944 18.702C96.2291 18.702 96.4087 18.658 96.5334 18.57C96.6654 18.4747 96.7314 18.3537 96.7314 18.207C96.7314 18.031 96.6397 17.9027 96.4564 17.822C96.2731 17.734 95.9761 17.6387 95.5654 17.536C95.1254 17.4333 94.7587 17.327 94.4654 17.217C94.1721 17.0997 93.9191 16.92 93.7064 16.678C93.4937 16.4287 93.3874 16.095 93.3874 15.677C93.3874 15.325 93.4827 15.006 93.6734 14.72C93.8714 14.4267 94.1574 14.1957 94.5314 14.027C94.9127 13.8583 95.3637 13.774 95.8844 13.774C96.6544 13.774 97.2594 13.9647 97.6994 14.346C98.1467 14.7273 98.4034 15.2333 98.4694 15.864H96.7314C96.7021 15.6513 96.6067 15.4827 96.4454 15.358C96.2914 15.2333 96.0861 15.171 95.8294 15.171C95.6094 15.171 95.4407 15.215 95.3234 15.303C95.2061 15.3837 95.1474 15.4973 95.1474 15.644C95.1474 15.82 95.2391 15.952 95.4224 16.04C95.6131 16.128 95.9064 16.216 96.3024 16.304C96.7571 16.4213 97.1274 16.5387 97.4134 16.656C97.6994 16.766 97.9487 16.9493 98.1614 17.206C98.3814 17.4553 98.4951 17.7927 98.5024 18.218C98.5024 18.5773 98.3997 18.9 98.1944 19.186C97.9964 19.4647 97.7067 19.6847 97.3254 19.846C96.9514 20.0073 96.5151 20.088 96.0164 20.088ZM100.599 13.224C100.269 13.224 99.9979 13.1287 99.7852 12.938C99.5799 12.74 99.4772 12.498 99.4772 12.212C99.4772 11.9187 99.5799 11.6767 99.7852 11.486C99.9979 11.288 100.269 11.189 100.599 11.189C100.922 11.189 101.186 11.288 101.391 11.486C101.604 11.6767 101.71 11.9187 101.71 12.212C101.71 12.498 101.604 12.74 101.391 12.938C101.186 13.1287 100.922 13.224 100.599 13.224ZM101.534 13.862V20H99.6532V13.862H101.534ZM106.174 13.224C105.844 13.224 105.573 13.1287 105.36 12.938C105.155 12.74 105.052 12.498 105.052 12.212C105.052 11.9187 105.155 11.6767 105.36 11.486C105.573 11.288 105.844 11.189 106.174 11.189C106.497 11.189 106.761 11.288 106.966 11.486C107.179 11.6767 107.285 11.9187 107.285 12.212C107.285 12.498 107.179 12.74 106.966 12.938C106.761 13.1287 106.497 13.224 106.174 13.224ZM107.109 13.862V20H105.228V13.862H107.109ZM112.213 13.796C112.931 13.796 113.503 14.0307 113.929 14.5C114.361 14.962 114.578 15.6 114.578 16.414V20H112.708V16.667C112.708 16.2563 112.601 15.9373 112.389 15.71C112.176 15.4827 111.89 15.369 111.531 15.369C111.171 15.369 110.885 15.4827 110.673 15.71C110.46 15.9373 110.354 16.2563 110.354 16.667V20H108.473V13.862H110.354V14.676C110.544 14.4047 110.801 14.192 111.124 14.038C111.446 13.8767 111.809 13.796 112.213 13.796ZM117.766 14.731C117.949 14.445 118.202 14.214 118.525 14.038C118.847 13.862 119.225 13.774 119.658 13.774C120.164 13.774 120.622 13.9023 121.033 14.159C121.443 14.4157 121.766 14.7823 122.001 15.259C122.243 15.7357 122.364 16.2893 122.364 16.92C122.364 17.5507 122.243 18.108 122.001 18.592C121.766 19.0687 121.443 19.439 121.033 19.703C120.622 19.9597 120.164 20.088 119.658 20.088C119.232 20.088 118.855 20 118.525 19.824C118.202 19.648 117.949 19.4207 117.766 19.142V22.926H115.885V13.862H117.766V14.731ZM120.45 16.92C120.45 16.4507 120.318 16.084 120.054 15.82C119.797 15.5487 119.478 15.413 119.097 15.413C118.723 15.413 118.404 15.5487 118.14 15.82C117.883 16.0913 117.755 16.4617 117.755 16.931C117.755 17.4003 117.883 17.7707 118.14 18.042C118.404 18.3133 118.723 18.449 119.097 18.449C119.471 18.449 119.79 18.3133 120.054 18.042C120.318 17.7633 120.45 17.3893 120.45 16.92ZM129.411 13.862V20H127.53V19.164C127.34 19.4353 127.079 19.6553 126.749 19.824C126.427 19.9853 126.067 20.066 125.671 20.066C125.202 20.066 124.788 19.9633 124.428 19.758C124.069 19.5453 123.79 19.241 123.592 18.845C123.394 18.449 123.295 17.9833 123.295 17.448V13.862H125.165V17.195C125.165 17.6057 125.272 17.9247 125.484 18.152C125.697 18.3793 125.983 18.493 126.342 18.493C126.709 18.493 126.999 18.3793 127.211 18.152C127.424 17.9247 127.53 17.6057 127.53 17.195V13.862H129.411ZM134.184 18.405V20H133.227C132.545 20 132.013 19.835 131.632 19.505C131.25 19.1677 131.06 18.6213 131.06 17.866V15.424H130.312V13.862H131.06V12.366H132.941V13.862H134.173V15.424H132.941V17.888C132.941 18.0713 132.985 18.2033 133.073 18.284C133.161 18.3647 133.307 18.405 133.513 18.405H134.184Z" fill="white"/>
</svg>
