<svg width="175" height="44" viewBox="0 0 175 44" fill="none" xmlns="http://www.w3.org/2000/svg">
<path d="M68.9523 42.9473L103.206 42.9473C105.905 42.9473 174.5 45.3159 174.5 42.9473L174.5 10.3717C174.5 8.00311 105.905 8.58949 103.206 8.5895L94.6425 8.5895L86.0791 2.29888e-05L77.5157 8.5895L68.9523 8.5895C66.2536 8.5895 -3.14695e-06 8.00311 -2.93989e-06 10.3717L-9.20296e-08 42.9473C1.15035e-07 45.3159 66.2536 42.9473 68.9523 42.9473Z" fill="#FF0000"/>
<path d="M45.9267 29.077C45.362 29.077 44.856 28.9853 44.4087 28.802C43.9614 28.6187 43.602 28.3473 43.3307 27.988C43.0667 27.6287 42.9274 27.196 42.9127 26.69H44.9147C44.944 26.976 45.043 27.196 45.2117 27.35C45.3804 27.4967 45.6004 27.57 45.8717 27.57C46.1504 27.57 46.3704 27.5077 46.5317 27.383C46.693 27.251 46.7737 27.0713 46.7737 26.844C46.7737 26.6533 46.7077 26.4957 46.5757 26.371C46.451 26.2463 46.2934 26.1437 46.1027 26.063C45.9194 25.9823 45.6554 25.8907 45.3107 25.788C44.812 25.634 44.405 25.48 44.0897 25.326C43.7744 25.172 43.503 24.9447 43.2757 24.644C43.0484 24.3433 42.9347 23.951 42.9347 23.467C42.9347 22.7483 43.195 22.1873 43.7157 21.784C44.2364 21.3733 44.9147 21.168 45.7507 21.168C46.6014 21.168 47.287 21.3733 47.8077 21.784C48.3284 22.1873 48.607 22.752 48.6437 23.478H46.6087C46.594 23.2287 46.5024 23.0343 46.3337 22.895C46.165 22.7483 45.9487 22.675 45.6847 22.675C45.4574 22.675 45.274 22.7373 45.1347 22.862C44.9954 22.9793 44.9257 23.1517 44.9257 23.379C44.9257 23.6283 45.043 23.8227 45.2777 23.962C45.5124 24.1013 45.879 24.2517 46.3777 24.413C46.8764 24.5817 47.2797 24.743 47.5877 24.897C47.903 25.051 48.1744 25.2747 48.4017 25.568C48.629 25.8613 48.7427 26.239 48.7427 26.701C48.7427 27.141 48.629 27.5407 48.4017 27.9C48.1817 28.2593 47.859 28.5453 47.4337 28.758C47.0084 28.9707 46.506 29.077 45.9267 29.077ZM50.8463 22.224C50.5163 22.224 50.2449 22.1287 50.0323 21.938C49.8269 21.74 49.7243 21.498 49.7243 21.212C49.7243 20.9187 49.8269 20.6767 50.0323 20.486C50.2449 20.288 50.5163 20.189 50.8463 20.189C51.1689 20.189 51.4329 20.288 51.6383 20.486C51.8509 20.6767 51.9573 20.9187 51.9573 21.212C51.9573 21.498 51.8509 21.74 51.6383 21.938C51.4329 22.1287 51.1689 22.224 50.8463 22.224ZM51.7813 22.862V29H49.9003V22.862H51.7813ZM55.0254 20.86V29H53.1444V20.86H55.0254ZM56.0145 25.92C56.0145 25.2893 56.1319 24.7357 56.3665 24.259C56.6085 23.7823 56.9349 23.4157 57.3455 23.159C57.7562 22.9023 58.2145 22.774 58.7205 22.774C59.1532 22.774 59.5309 22.862 59.8535 23.038C60.1835 23.214 60.4365 23.445 60.6125 23.731V22.862H62.4935V29H60.6125V28.131C60.4292 28.417 60.1725 28.648 59.8425 28.824C59.5199 29 59.1422 29.088 58.7095 29.088C58.2109 29.088 57.7562 28.9597 57.3455 28.703C56.9349 28.439 56.6085 28.0687 56.3665 27.592C56.1319 27.108 56.0145 26.5507 56.0145 25.92ZM60.6125 25.931C60.6125 25.4617 60.4805 25.0913 60.2165 24.82C59.9599 24.5487 59.6445 24.413 59.2705 24.413C58.8965 24.413 58.5775 24.5487 58.3135 24.82C58.0569 25.084 57.9285 25.4507 57.9285 25.92C57.9285 26.3893 58.0569 26.7633 58.3135 27.042C58.5775 27.3133 58.8965 27.449 59.2705 27.449C59.6445 27.449 59.9599 27.3133 60.2165 27.042C60.4805 26.7707 60.6125 26.4003 60.6125 25.931ZM67.6274 22.796C68.3314 22.796 68.896 23.0307 69.3214 23.5C69.7467 23.962 69.9594 24.6 69.9594 25.414V29H68.0894V25.667C68.0894 25.2563 67.983 24.9373 67.7704 24.71C67.5577 24.4827 67.2717 24.369 66.9124 24.369C66.553 24.369 66.267 24.4827 66.0544 24.71C65.8417 24.9373 65.7354 25.2563 65.7354 25.667V29H63.8544V20.86H65.7354V23.687C65.926 23.4157 66.1864 23.1993 66.5164 23.038C66.8464 22.8767 67.2167 22.796 67.6274 22.796ZM75.0175 29L73.1475 26.426V29H71.2665V20.86H73.1475V25.359L75.0065 22.862H77.3275L74.7755 25.942L77.3495 29H75.0175ZM77.6923 25.92C77.6923 25.2893 77.8096 24.7357 78.0443 24.259C78.2863 23.7823 78.6126 23.4157 79.0233 23.159C79.4339 22.9023 79.8923 22.774 80.3983 22.774C80.8309 22.774 81.2086 22.862 81.5313 23.038C81.8613 23.214 82.1143 23.445 82.2903 23.731V22.862H84.1713V29H82.2903V28.131C82.1069 28.417 81.8503 28.648 81.5203 28.824C81.1976 29 80.8199 29.088 80.3873 29.088C79.8886 29.088 79.4339 28.9597 79.0233 28.703C78.6126 28.439 78.2863 28.0687 78.0443 27.592C77.8096 27.108 77.6923 26.5507 77.6923 25.92ZM82.2903 25.931C82.2903 25.4617 82.1583 25.0913 81.8943 24.82C81.6376 24.5487 81.3223 24.413 80.9483 24.413C80.5743 24.413 80.2553 24.5487 79.9913 24.82C79.7346 25.084 79.6063 25.4507 79.6063 25.92C79.6063 26.3893 79.7346 26.7633 79.9913 27.042C80.2553 27.3133 80.5743 27.449 80.9483 27.449C81.3223 27.449 81.6376 27.3133 81.8943 27.042C82.1583 26.7707 82.2903 26.4003 82.2903 25.931ZM89.2721 22.796C89.9908 22.796 90.5628 23.0307 90.9881 23.5C91.4208 23.962 91.6371 24.6 91.6371 25.414V29H89.7671V25.667C89.7671 25.2563 89.6608 24.9373 89.4481 24.71C89.2354 24.4827 88.9494 24.369 88.5901 24.369C88.2308 24.369 87.9448 24.4827 87.7321 24.71C87.5194 24.9373 87.4131 25.2563 87.4131 25.667V29H85.5321V22.862H87.4131V23.676C87.6038 23.4047 87.8604 23.192 88.1831 23.038C88.5058 22.8767 88.8688 22.796 89.2721 22.796ZM96.2213 22.224C95.8913 22.224 95.6199 22.1287 95.4073 21.938C95.2019 21.74 95.0993 21.498 95.0993 21.212C95.0993 20.9187 95.2019 20.6767 95.4073 20.486C95.6199 20.288 95.8913 20.189 96.2213 20.189C96.5439 20.189 96.8079 20.288 97.0133 20.486C97.2259 20.6767 97.3323 20.9187 97.3323 21.212C97.3323 21.498 97.2259 21.74 97.0133 21.938C96.8079 22.1287 96.5439 22.224 96.2213 22.224ZM97.1563 22.862V29H95.2753V22.862H97.1563ZM101.016 29.088C100.481 29.088 100.004 28.9963 99.5864 28.813C99.1684 28.6297 98.8384 28.3803 98.5964 28.065C98.3544 27.7423 98.2187 27.383 98.1894 26.987H100.048C100.07 27.1997 100.169 27.372 100.345 27.504C100.521 27.636 100.738 27.702 100.994 27.702C101.229 27.702 101.409 27.658 101.533 27.57C101.665 27.4747 101.731 27.3537 101.731 27.207C101.731 27.031 101.64 26.9027 101.456 26.822C101.273 26.734 100.976 26.6387 100.565 26.536C100.125 26.4333 99.7587 26.327 99.4654 26.217C99.1721 26.0997 98.9191 25.92 98.7064 25.678C98.4937 25.4287 98.3874 25.095 98.3874 24.677C98.3874 24.325 98.4827 24.006 98.6734 23.72C98.8714 23.4267 99.1574 23.1957 99.5314 23.027C99.9127 22.8583 100.364 22.774 100.884 22.774C101.654 22.774 102.259 22.9647 102.699 23.346C103.147 23.7273 103.403 24.2333 103.469 24.864H101.731C101.702 24.6513 101.607 24.4827 101.445 24.358C101.291 24.2333 101.086 24.171 100.829 24.171C100.609 24.171 100.441 24.215 100.323 24.303C100.206 24.3837 100.147 24.4973 100.147 24.644C100.147 24.82 100.239 24.952 100.422 25.04C100.613 25.128 100.906 25.216 101.302 25.304C101.757 25.4213 102.127 25.5387 102.413 25.656C102.699 25.766 102.949 25.9493 103.161 26.206C103.381 26.4553 103.495 26.7927 103.502 27.218C103.502 27.5773 103.4 27.9 103.194 28.186C102.996 28.4647 102.707 28.6847 102.325 28.846C101.951 29.0073 101.515 29.088 101.016 29.088ZM105.599 22.224C105.269 22.224 104.998 22.1287 104.785 21.938C104.58 21.74 104.477 21.498 104.477 21.212C104.477 20.9187 104.58 20.6767 104.785 20.486C104.998 20.288 105.269 20.189 105.599 20.189C105.922 20.189 106.186 20.288 106.391 20.486C106.604 20.6767 106.71 20.9187 106.71 21.212C106.71 21.498 106.604 21.74 106.391 21.938C106.186 22.1287 105.922 22.224 105.599 22.224ZM106.534 22.862V29H104.653V22.862H106.534ZM111.174 22.224C110.844 22.224 110.573 22.1287 110.36 21.938C110.155 21.74 110.052 21.498 110.052 21.212C110.052 20.9187 110.155 20.6767 110.36 20.486C110.573 20.288 110.844 20.189 111.174 20.189C111.497 20.189 111.761 20.288 111.966 20.486C112.179 20.6767 112.285 20.9187 112.285 21.212C112.285 21.498 112.179 21.74 111.966 21.938C111.761 22.1287 111.497 22.224 111.174 22.224ZM112.109 22.862V29H110.228V22.862H112.109ZM117.213 22.796C117.931 22.796 118.503 23.0307 118.929 23.5C119.361 23.962 119.578 24.6 119.578 25.414V29H117.708V25.667C117.708 25.2563 117.601 24.9373 117.389 24.71C117.176 24.4827 116.89 24.369 116.531 24.369C116.171 24.369 115.885 24.4827 115.673 24.71C115.46 24.9373 115.354 25.2563 115.354 25.667V29H113.473V22.862H115.354V23.676C115.544 23.4047 115.801 23.192 116.124 23.038C116.446 22.8767 116.809 22.796 117.213 22.796ZM122.766 23.731C122.949 23.445 123.202 23.214 123.525 23.038C123.847 22.862 124.225 22.774 124.658 22.774C125.164 22.774 125.622 22.9023 126.033 23.159C126.443 23.4157 126.766 23.7823 127.001 24.259C127.243 24.7357 127.364 25.2893 127.364 25.92C127.364 26.5507 127.243 27.108 127.001 27.592C126.766 28.0687 126.443 28.439 126.033 28.703C125.622 28.9597 125.164 29.088 124.658 29.088C124.232 29.088 123.855 29 123.525 28.824C123.202 28.648 122.949 28.4207 122.766 28.142V31.926H120.885V22.862H122.766V23.731ZM125.45 25.92C125.45 25.4507 125.318 25.084 125.054 24.82C124.797 24.5487 124.478 24.413 124.097 24.413C123.723 24.413 123.404 24.5487 123.14 24.82C122.883 25.0913 122.755 25.4617 122.755 25.931C122.755 26.4003 122.883 26.7707 123.14 27.042C123.404 27.3133 123.723 27.449 124.097 27.449C124.471 27.449 124.79 27.3133 125.054 27.042C125.318 26.7633 125.45 26.3893 125.45 25.92ZM134.411 22.862V29H132.53V28.164C132.34 28.4353 132.079 28.6553 131.749 28.824C131.427 28.9853 131.067 29.066 130.671 29.066C130.202 29.066 129.788 28.9633 129.428 28.758C129.069 28.5453 128.79 28.241 128.592 27.845C128.394 27.449 128.295 26.9833 128.295 26.448V22.862H130.165V26.195C130.165 26.6057 130.272 26.9247 130.484 27.152C130.697 27.3793 130.983 27.493 131.342 27.493C131.709 27.493 131.999 27.3793 132.211 27.152C132.424 26.9247 132.53 26.6057 132.53 26.195V22.862H134.411ZM139.184 27.405V29H138.227C137.545 29 137.013 28.835 136.632 28.505C136.25 28.1677 136.06 27.6213 136.06 26.866V24.424H135.312V22.862H136.06V21.366H137.941V22.862H139.173V24.424H137.941V26.888C137.941 27.0713 137.985 27.2033 138.073 27.284C138.161 27.3647 138.307 27.405 138.513 27.405H139.184Z" fill="white"/>
</svg>
