<svg width="34" height="34" viewBox="0 0 34 34" fill="none" xmlns="http://www.w3.org/2000/svg">
<circle cx="17" cy="17" r="17" fill="white"/>
<path d="M19.0301 8.576V17H16.9781V11.948L15.0941 17H13.4381L11.5421 11.936V17H9.49009V8.576H11.9141L14.2781 14.408L16.6181 8.576H19.0301ZM22.5577 10.22V11.924H25.3057V13.508H22.5577V15.356H25.6657V17H20.5057V8.576H25.6657V10.22H22.5577ZM17.0378 27H14.9858L11.5538 21.804V27H9.50181V18.576H11.5538L14.9858 23.796V18.576H17.0378V27ZM20.5413 18.576V23.616C20.5413 24.12 20.6653 24.508 20.9133 24.78C21.1613 25.052 21.5253 25.188 22.0053 25.188C22.4853 25.188 22.8533 25.052 23.1093 24.78C23.3653 24.508 23.4933 24.12 23.4933 23.616V18.576H25.5453V23.604C25.5453 24.356 25.3853 24.992 25.0653 25.512C24.7453 26.032 24.3133 26.424 23.7693 26.688C23.2333 26.952 22.6333 27.084 21.9693 27.084C21.3053 27.084 20.7093 26.956 20.1813 26.7C19.6613 26.436 19.2493 26.044 18.9453 25.524C18.6413 24.996 18.4893 24.356 18.4893 23.604V18.576H20.5413Z" fill="black"/>
</svg>
