<svg width="218" height="218" viewBox="0 0 218 218" fill="none" xmlns="http://www.w3.org/2000/svg">
<path d="M76.3 98.1C78.4558 98.1 80.5633 97.4607 82.3558 96.263C84.1482 95.0653 85.5453 93.3629 86.3703 91.3712C87.1953 89.3795 87.4112 87.1879 86.9906 85.0735C86.57 82.9591 85.5319 81.0169 84.0075 79.4925C82.4831 77.9681 80.5409 76.93 78.4265 76.5094C76.3121 76.0888 74.1205 76.3047 72.1288 77.1297C70.1371 77.9547 68.4347 79.3518 67.237 81.1443C66.0393 82.9368 65.4 85.0442 65.4 87.2C65.4 90.0908 66.5484 92.8633 68.5926 94.9074C70.6367 96.9516 73.4092 98.1 76.3 98.1ZM132.544 111.289C133.563 112.299 134.77 113.098 136.098 113.641C137.426 114.183 138.849 114.458 140.283 114.45C141.718 114.458 143.14 114.183 144.468 113.641C145.796 113.098 147.004 112.299 148.022 111.289C149.044 110.276 149.855 109.07 150.408 107.742C150.961 106.414 151.246 104.989 151.246 103.55C151.246 102.111 150.961 100.686 150.408 99.3581C149.855 98.0298 149.044 96.8243 148.022 95.811L139.411 87.2L148.022 78.589C149.038 77.5727 149.844 76.3662 150.395 75.0383C150.945 73.7104 151.228 72.2872 151.228 70.85C151.228 69.4127 150.945 67.9895 150.395 66.6617C149.844 65.3338 149.038 64.1273 148.022 63.111C147.006 62.0947 145.799 61.2885 144.471 60.7385C143.143 60.1885 141.72 59.9054 140.283 59.9054C138.846 59.9054 137.423 60.1885 136.095 60.7385C134.767 61.2885 133.56 62.0947 132.544 63.111L116.194 79.461C115.172 80.4743 114.361 81.6798 113.808 83.0081C113.255 84.3364 112.97 85.761 112.97 87.2C112.97 88.6389 113.255 90.0636 113.808 91.3919C114.361 92.7201 115.172 93.9257 116.194 94.939L132.544 111.289ZM109 0C87.4419 0 66.3678 6.39274 48.4429 18.3698C30.5179 30.3469 16.5471 47.3703 8.29718 67.2875C0.047228 87.2046 -2.11134 109.121 2.09445 130.265C6.30024 151.409 16.6815 170.831 31.9254 186.075C47.1693 201.318 66.5913 211.7 87.7352 215.906C108.879 220.111 130.795 217.953 150.713 209.703C170.63 201.453 187.653 187.482 199.63 169.557C211.607 151.632 218 130.558 218 109C218 94.6859 215.181 80.512 209.703 67.2875C204.225 54.063 196.196 42.0469 186.075 31.9254C175.953 21.8038 163.937 13.7749 150.713 8.29713C137.488 2.81937 123.314 0 109 0ZM109 196.2C91.7535 196.2 74.8943 191.086 60.5543 181.504C46.2143 171.922 35.0377 158.304 28.4377 142.37C21.8378 126.436 20.1109 108.903 23.4756 91.9881C26.8402 75.073 35.1452 59.5354 47.3403 47.3403C59.5355 35.1451 75.073 26.8401 91.9882 23.4755C108.903 20.1109 126.436 21.8377 142.37 28.4377C158.304 35.0377 171.922 46.2143 181.504 60.5543C191.086 74.8942 196.2 91.7534 196.2 109C196.2 132.127 187.013 154.307 170.66 170.66C154.307 187.013 132.127 196.2 109 196.2ZM134.724 133.307C127.438 139.182 118.36 142.385 109 142.385C99.6403 142.385 90.5625 139.182 83.276 133.307C81.0501 131.457 78.1803 130.567 75.2981 130.832C72.4158 131.098 69.7572 132.498 67.907 134.724C66.0569 136.95 65.1668 139.82 65.4325 142.702C65.6982 145.584 67.0981 148.243 69.324 150.093C80.4566 159.386 94.4983 164.477 109 164.477C123.502 164.477 137.543 159.386 148.676 150.093C150.902 148.243 152.302 145.584 152.568 142.702C152.833 139.82 151.943 136.95 150.093 134.724C149.177 133.622 148.053 132.711 146.785 132.043C145.516 131.375 144.129 130.964 142.702 130.832C139.82 130.567 136.95 131.457 134.724 133.307Z" fill="black"/>
</svg>
