<svg width="50" height="50" viewBox="0 0 50 50" fill="none" xmlns="http://www.w3.org/2000/svg">
<rect width="50" height="50" fill="white"/>
<mask id="mask0_597_17" style="mask-type:alpha" maskUnits="userSpaceOnUse" x="0" y="0" width="50" height="50">
<rect width="50" height="50" fill="white"/>
</mask>
<g mask="url(#mask0_597_17)">
<path d="M-224.875 11.082L-218.078 37H-221.398L-225.52 21.1602L-232.609 37.957L-239.719 21.043L-243.879 37H-247.199L-240.402 11.082L-232.609 29.6367L-224.875 11.082ZM-165.266 11.1602L-153.508 37H-157.062L-159.973 30.6328H-170.539L-173.371 37H-176.906L-165.266 11.1602ZM-165.266 18.9531L-169.27 27.8008H-161.262L-165.266 18.9531ZM-91.8477 12.957V16.8047C-94.5299 15.4896 -96.9974 14.832 -99.25 14.832C-102.141 14.832 -104.576 15.7695 -106.555 17.6445C-108.534 19.5065 -109.523 21.7982 -109.523 24.5195C-109.523 27.293 -108.514 29.6107 -106.496 31.4727C-104.465 33.3216 -101.926 34.2461 -98.8789 34.2461C-96.6654 34.2461 -94.3216 33.5495 -91.8477 32.1562V36.043C-94.1003 37.2409 -96.5417 37.8398 -99.1719 37.8398C-103.026 37.8398 -106.32 36.5378 -109.055 33.9336C-111.789 31.3164 -113.156 28.1654 -113.156 24.4805C-113.156 20.8607 -111.815 17.7617 -109.133 15.1836C-106.438 12.6055 -103.195 11.3164 -99.4062 11.3164C-96.9714 11.3164 -94.4518 11.8633 -91.8477 12.957ZM-47.2578 12.1172H-41.8672C-39.1849 12.1172 -37.0039 12.7878 -35.3242 14.1289C-33.6315 15.457 -32.7852 17.1628 -32.7852 19.2461C-32.7852 20.9128 -33.332 22.3841 -34.4258 23.6602C-35.5195 24.9362 -37.2253 25.8346 -39.543 26.3555L-32.2969 37H-36.1836L-43.0977 26.7656H-43.8594V37H-47.2578V12.1172ZM-43.8594 15.125V23.7969C-38.8464 23.901 -36.3398 22.4492 -36.3398 19.4414C-36.3398 18.3867 -36.6328 17.5273 -37.2188 16.8633C-37.8047 16.1862 -38.5859 15.7305 -39.5625 15.4961C-40.5391 15.2487 -41.9714 15.125 -43.8594 15.125ZM11.1797 24.4023C11.1797 20.8086 12.5339 17.7292 15.2422 15.1641C17.9505 12.599 21.2057 11.3164 25.0078 11.3164C28.7188 11.3164 31.9154 12.612 34.5977 15.2031C37.2799 17.7812 38.6211 20.8477 38.6211 24.4023C38.6211 28.1654 37.293 31.349 34.6367 33.9531C31.9935 36.5443 28.7448 37.8398 24.8906 37.8398C21.0885 37.8398 17.8529 36.5312 15.1836 33.9141C12.5143 31.2969 11.1797 28.1263 11.1797 24.4023ZM35.0078 24.5586C35.0078 21.8112 34.0182 19.5 32.0391 17.625C30.0599 15.737 27.625 14.793 24.7344 14.793C21.987 14.793 19.6302 15.75 17.6641 17.6641C15.7109 19.5781 14.7344 21.8763 14.7344 24.5586C14.7344 27.2799 15.737 29.5846 17.7422 31.4727C19.7604 33.3477 22.2279 34.2852 25.1445 34.2852C27.8268 34.2852 30.138 33.3281 32.0781 31.4141C34.0312 29.487 35.0078 27.2018 35.0078 24.5586Z" fill="black"/>
<ellipse cx="26.5" cy="24.5" rx="12.5" ry="10.5" fill="white"/>
<circle cx="37" cy="22" r="4" fill="black"/>
<circle cx="27" cy="22" r="4" fill="black"/>
<circle cx="25.5" cy="20.5" r="1.5" fill="white"/>
<circle cx="35.5" cy="20.5" r="1.5" fill="white"/>
</g>
</svg>
