<svg width="30" height="30" viewBox="0 0 30 30" fill="none" xmlns="http://www.w3.org/2000/svg">
<path d="M23.4844 9.96094C23.3906 10.0547 23.3203 10.1953 23.3437 10.3359C23.3672 10.7812 23.9531 21.4453 12.6328 24.1172C12.5859 24.1172 8.08593 25.0547 4.19531 23.1328C5.83593 23.0859 8.20312 22.6641 9.84374 20.8125C9.96093 20.6719 10.0078 20.4844 9.91406 20.2969C9.84374 20.1328 9.67968 20.0156 9.49218 20.0156C9.46874 20.0391 7.00781 20.0156 5.85937 17.6719C6.30468 17.6953 6.86718 17.6719 7.33593 17.4609C7.52343 17.3672 7.64062 17.1797 7.61718 16.9922C7.59374 16.7813 7.45312 16.6172 7.24218 16.5938C7.12499 16.5703 4.35937 15.9609 3.98437 12.9609C4.40624 13.1484 4.94531 13.2891 5.46093 13.2188C5.64843 13.1953 5.78906 13.0547 5.83593 12.8906C5.88281 12.7031 5.83593 12.5156 5.69531 12.3984C5.57812 12.3047 2.99999 10.0078 4.21874 7.03125C5.55468 8.4375 9.49218 12.0469 14.2734 11.7891C14.4141 11.7891 14.5312 11.7188 14.625 11.6016C14.7187 11.4844 14.7422 11.3438 14.6953 11.2031C14.6016 10.8516 14.5547 10.4766 14.5547 10.1016C14.5547 7.66406 16.5 5.67188 18.9141 5.67188C20.0859 5.67188 21.1875 6.14062 22.0078 6.98437C22.1016 7.07812 22.2187 7.125 22.3359 7.125C22.8281 7.125 23.6484 7.07812 24.5859 6.70312C24.3281 7.03125 23.9297 7.42969 23.3437 7.89844C23.1797 8.01563 23.1094 8.25 23.2031 8.4375C23.2734 8.625 23.4844 8.74219 23.6719 8.74219C23.7891 8.74219 24.3516 8.69531 24.9844 8.55469C24.6094 8.88281 24.1406 9.35156 23.4844 9.96094Z" fill="#76ECFF"/>
<path d="M7.52343 15.2578C7.71093 15.2344 7.85156 15.0937 7.89843 14.9297C7.94531 14.7422 7.89843 14.5547 7.75781 14.4375C7.64062 14.3437 5.06249 12.0469 6.28124 9.07031C7.61718 10.4766 11.5547 14.0859 16.3359 13.8281C16.4766 13.8281 16.5937 13.7578 16.6875 13.6406C16.7812 13.5234 16.8047 13.3828 16.7578 13.2422C16.6641 12.8906 16.6172 12.5156 16.6172 12.1406C16.6172 9.70312 18.5625 7.71094 20.9766 7.71094C21.75 7.71094 24.3047 7.00781 24.5625 6.67969C23.625 7.05469 22.8047 7.10156 22.3125 7.10156C22.1953 7.10156 22.0781 7.05469 21.9844 6.96094C21.1641 6.11719 20.0625 5.64844 18.8906 5.64844C16.4766 5.64844 14.5312 7.61719 14.5312 10.0547C14.5312 10.4297 14.5781 10.8047 14.6719 11.1562C14.6953 11.2969 14.6719 11.4375 14.6016 11.5547C14.5078 11.6719 14.3906 11.7422 14.25 11.7422C9.46874 12.0234 5.53124 8.39062 4.19531 6.98437C2.97656 9.9375 5.55468 12.2344 5.67187 12.3516C5.81249 12.4687 5.85937 12.6562 5.81249 12.8437C5.76562 13.0312 5.60156 13.1484 5.43749 13.1719C4.89843 13.2422 4.38281 13.1016 3.96093 12.9141C4.21874 14.9062 5.50781 15.8438 6.39843 16.2656C6.23437 15.8906 6.11718 15.4922 6.04687 15C6.44531 15.1875 6.98437 15.3516 7.52343 15.2578ZM9.39843 19.5469C9.58593 19.4531 9.70312 19.2656 9.67968 19.0781C9.65624 18.8672 9.51562 18.7031 9.30468 18.6797C9.23437 18.6562 8.13281 18.4219 7.24218 17.5312C6.82031 17.6953 6.30468 17.7188 5.85937 17.6953C6.44531 18.8906 7.38281 19.5 8.15624 19.7812C8.55468 19.7578 9.02343 19.7109 9.39843 19.5469ZM11.9062 22.8984C12.0234 22.7578 12.0703 22.5703 11.9766 22.3828C11.9062 22.2188 11.7422 22.1016 11.5547 22.1016C11.5312 22.1016 10.3828 22.1016 9.28124 21.3516C7.68749 22.7344 5.64843 23.0859 4.17187 23.1328C6.16406 24.1172 8.34374 24.3516 9.96093 24.3516C10.6641 24 11.3437 23.5312 11.9062 22.8984Z" fill="white"/>
<path d="M5.67179 13.0781C5.50772 13.0781 5.34366 13.0312 5.20304 12.9141C5.08585 12.7969 2.13272 10.1719 3.53897 6.75C3.63272 6.53906 3.82022 6.375 4.0546 6.32812C4.28897 6.28125 4.52335 6.35156 4.68741 6.53906C8.60147 10.6406 12.2577 11.1094 13.8983 11.0859C13.828 10.7578 13.8046 10.4297 13.8046 10.1016C13.8046 7.28906 16.078 4.96875 18.8671 4.96875C20.203 4.96875 21.4452 5.48437 22.3827 6.42187C23.953 6.32812 24.8905 5.55469 24.914 5.55469C25.2187 5.29688 25.664 5.34375 25.8983 5.625C26.1562 5.92969 26.1093 6.375 25.828 6.60938C25.7812 6.65625 24.4687 7.75781 22.3124 7.82813C22.289 7.82813 22.289 7.82813 22.2655 7.82813C21.9608 7.82813 21.6562 7.6875 21.4452 7.47656C20.7655 6.77344 19.828 6.375 18.8437 6.375C16.8749 6.35156 15.2343 8.01563 15.2343 10.0547C15.2343 10.3594 15.2812 10.6875 15.3515 10.9922C15.4452 11.3438 15.3749 11.6953 15.164 11.9766C14.953 12.2578 14.6249 12.4453 14.2733 12.4453C10.0546 12.6797 6.4921 10.125 4.57022 8.36719C4.4296 10.3359 6.04679 11.7656 6.1171 11.8359C6.39835 12.0938 6.44522 12.5391 6.18741 12.8203C6.07022 12.9844 5.85929 13.0781 5.67179 13.0781ZM23.3437 11.0391C23.1093 11.0391 22.8749 10.9219 22.7343 10.6875C22.5468 10.3594 22.664 9.91406 22.9921 9.72656C24.2577 9 25.5702 7.33594 25.5937 7.3125C25.828 7.00781 26.2733 6.96094 26.578 7.19531C26.8827 7.42969 26.9296 7.875 26.6952 8.17969C26.6249 8.25 25.1952 10.0781 23.6952 10.9453C23.578 10.9922 23.4608 11.0391 23.3437 11.0391ZM7.21866 17.2734C7.17179 17.2734 7.12491 17.2734 7.07804 17.25C6.93741 17.2266 3.70304 16.5 3.25772 13.0078C3.21085 12.6328 3.4921 12.2812 3.8671 12.2109C4.2421 12.1641 4.59366 12.4453 4.66397 12.8203C4.9921 15.3281 7.28897 15.8437 7.38272 15.8672C7.75772 15.9375 8.01554 16.3125 7.92179 16.7109C7.82804 17.0625 7.54679 17.2734 7.21866 17.2734Z" fill="#444B54"/>
<path d="M9.49228 20.7422C9.09384 20.7656 8.60166 20.6484 8.29697 20.5547C7.33603 20.2734 6.00009 19.6172 5.22666 17.9765C5.06259 17.625 5.20322 17.2031 5.55478 17.039C5.90634 16.875 6.32822 17.0156 6.49228 17.3672C7.38291 19.2187 9.28134 19.3125 9.44541 19.3359C9.84384 19.3125 10.1954 19.6406 10.1954 20.039C10.1954 20.414 9.86728 20.7422 9.49228 20.7422ZM9.51572 22.2656C9.46884 22.2656 9.42197 22.2656 9.37509 22.2422C9.32822 22.2422 9.28134 22.2187 9.23447 22.1953C9.18759 22.1718 9.14072 22.1484 9.11728 22.125C9.07041 22.1015 9.04697 22.0781 9.0001 22.0312C8.97666 22.0078 8.92978 21.9609 8.90634 21.914C8.88291 21.8672 8.85947 21.8437 8.83603 21.7968C8.8126 21.75 8.81259 21.7031 8.78916 21.6562C8.78916 21.6093 8.76572 21.5625 8.76572 21.5156C8.76572 21.4687 8.76572 21.4218 8.78916 21.375C8.78916 21.3281 8.8126 21.2812 8.83603 21.2343C8.85947 21.1875 8.88291 21.1406 8.90634 21.1172C8.92978 21.0703 8.95322 21.0468 9.0001 21C9.02353 20.9765 9.07041 20.9297 9.11728 20.9062C9.16416 20.8828 9.18759 20.8593 9.23447 20.8359C9.28134 20.8125 9.32822 20.8125 9.37509 20.789C9.46884 20.7656 9.56259 20.7656 9.65634 20.789C9.70322 20.789 9.75009 20.8125 9.79697 20.8359C9.84384 20.8593 9.89072 20.8828 9.91416 20.9062C9.96103 20.9297 9.98447 20.9531 10.0313 21C10.0782 21.0468 10.1017 21.0703 10.1251 21.1172C10.1485 21.164 10.172 21.1875 10.1954 21.2343C10.2188 21.2812 10.2188 21.3281 10.2423 21.375C10.2423 21.4218 10.2657 21.4687 10.2657 21.5156C10.2657 21.5625 10.2657 21.6093 10.2423 21.6562C10.2423 21.7031 10.2188 21.75 10.1954 21.7968C10.172 21.8437 10.1485 21.8906 10.1251 21.914C10.1017 21.9375 10.0782 21.9843 10.0313 22.0312C10.0079 22.0547 9.96103 22.1015 9.91416 22.125C9.86728 22.1484 9.84384 22.1718 9.79697 22.1953C9.75009 22.2187 9.70322 22.2187 9.65634 22.2422C9.60947 22.2422 9.56259 22.2656 9.51572 22.2656Z" fill="#444B54"/>
<path d="M4.19531 23.8359C3.82031 23.8359 3.49219 23.5312 3.49219 23.1562C3.49219 22.7578 3.79687 22.4531 4.17187 22.4297C5.41406 22.4062 6.53906 22.1484 7.47656 21.7031C7.82813 21.539 8.25 21.6797 8.41406 22.0312C8.57813 22.3828 8.4375 22.8047 8.08594 22.9687C6.96094 23.5078 5.64844 23.789 4.19531 23.8359Z" fill="#444B54"/>
<path d="M9.91414 25.0547C9.21102 25.0547 8.41414 25.0078 7.57039 24.8906C7.19539 24.8438 6.91414 24.4688 6.98445 24.0938C7.03133 23.7188 7.40633 23.4375 7.78133 23.5078C10.3126 23.8828 12.4688 23.4375 12.4923 23.4375C23.2032 20.8828 22.6641 10.8047 22.6407 10.3828C22.6173 9.9844 22.8985 9.65627 23.297 9.63283C23.6954 9.6094 24.0235 9.89065 24.047 10.2891C24.0704 10.7578 24.6798 21.9844 12.797 24.7969C12.7032 24.8203 11.5548 25.0547 9.91414 25.0547Z" fill="#444B54"/>
</svg>
