<svg width="30" height="30" viewBox="0 0 30 30" fill="none" xmlns="http://www.w3.org/2000/svg">
<path d="M19.8984 11.2734H16.5703V9.09375C16.5703 8.27344 17.1094 8.08594 17.5078 8.08594C17.8828 8.08594 19.875 8.08594 19.875 8.08594V4.47656L16.5938 4.45312C13.0078 4.45312 12.1875 7.14844 12.1875 8.88281V11.2969H10.1016V15H12.1875C12.1875 19.7812 12.1875 25.5469 12.1875 25.5469H16.5703C16.5703 25.5469 16.5703 19.7344 16.5703 15H19.5234L19.8984 11.2734Z" fill="#659EC9"/>
<path d="M16.5938 6.79688L19.8281 6.82031V4.47656L16.5938 4.45312C13.0078 4.45312 12.1875 7.14844 12.1875 8.88281V11.2266C12.1875 9.49219 13.0078 6.79688 16.5938 6.79688Z" fill="white"/>
<path d="M16.5703 26.25H12.1875C11.7891 26.25 11.4844 25.9453 11.4844 25.5469V15.7031H10.1016C9.70312 15.7031 9.39844 15.3984 9.39844 15C9.39844 14.6016 9.70312 14.2969 10.1016 14.2969H12.1875C12.5859 14.2969 12.8906 14.6016 12.8906 15V24.8438H15.8672V15C15.8672 14.6016 16.1719 14.2969 16.5703 14.2969H18.8906L19.125 11.9766H16.5703C16.1719 11.9766 15.8672 11.6719 15.8672 11.2734V9.09375C15.8672 7.89844 16.6875 7.38281 17.5078 7.38281H19.1719V5.15625H16.6172C15.4922 5.15625 12.8906 5.50781 12.8906 8.88281V11.2969C12.8906 11.6953 12.5859 12 12.1875 12H10.1016C9.70312 12 9.39844 11.6953 9.39844 11.2969C9.39844 10.8984 9.70312 10.5938 10.1016 10.5938H11.4844V8.88281C11.4844 6.51563 12.8203 3.75 16.5938 3.75L19.8516 3.77344C20.25 3.77344 20.5547 4.07813 20.5547 4.47656V8.08594C20.5547 8.48438 20.25 8.78906 19.8516 8.78906H17.4844C17.3438 8.78906 17.25 8.78906 17.25 9.09375V10.5703H19.875C20.0625 10.5703 20.2734 10.6641 20.3906 10.8047C20.5312 10.9453 20.5781 11.1563 20.5781 11.3438L20.2031 15.0703C20.1562 15.4219 19.875 15.7031 19.5 15.7031H17.25V25.5469C17.2734 25.9453 16.9453 26.25 16.5703 26.25Z" fill="#444B54"/>
<path d="M19.8516 26.25H9.84375C9.44531 26.25 9.14062 25.9453 9.14062 25.5469C9.14062 25.1484 9.44531 24.8437 9.84375 24.8437H19.8516C20.25 24.8437 20.5547 25.1484 20.5547 25.5469C20.5547 25.9453 20.2266 26.25 19.8516 26.25ZM23.6016 26.25C23.4141 26.25 23.2266 26.1797 23.1094 26.0391C22.9688 25.8984 22.8984 25.7344 22.8984 25.5469C22.8984 25.5 22.8984 25.4531 22.9219 25.4062C22.9219 25.3594 22.9453 25.3125 22.9688 25.2656C22.9922 25.2188 23.0156 25.1953 23.0391 25.1484C23.0625 25.1016 23.0859 25.0781 23.1328 25.0313C23.3906 24.7734 23.8594 24.7734 24.1172 25.0313C24.2578 25.1719 24.3281 25.3359 24.3281 25.5234C24.3281 25.7109 24.2578 25.8984 24.1172 26.0156C23.9531 26.1797 23.7891 26.25 23.6016 26.25Z" fill="#444B54"/>
</svg>
