<svg width="30" height="30" viewBox="0 0 30 30" fill="none" xmlns="http://www.w3.org/2000/svg">
<path d="M20.2031 25.5469H9.79688C7.5 25.5469 5.625 23.6719 5.625 21.375V10.9688C5.625 8.67187 7.5 6.79688 9.79688 6.79688H20.2031C22.5 6.79688 24.375 8.67187 24.375 10.9688V21.375C24.375 23.6719 22.5 25.5469 20.2031 25.5469Z" fill="#FF697B"/>
<path d="M5.625 10.9688V13.5938H24.375V10.9688C24.375 8.67187 22.5 6.79688 20.2031 6.79688H9.79688C7.5 6.79688 5.625 8.67187 5.625 10.9688Z" fill="white"/>
<path d="M20.2031 26.25H9.79688C7.10156 26.25 4.92188 24.0703 4.92188 21.375V10.9688C4.92188 8.27344 7.10156 6.09375 9.79688 6.09375H20.2031C22.8984 6.09375 25.0781 8.27344 25.0781 10.9688V21.375C25.0781 24.0703 22.8984 26.25 20.2031 26.25ZM9.79688 7.5C7.875 7.5 6.32812 9.04687 6.32812 10.9688V21.375C6.32812 23.2734 7.875 24.8438 9.79688 24.8438H20.2031C22.1016 24.8438 23.6719 23.2969 23.6719 21.375V10.9688C23.6719 9.07031 22.125 7.5 20.2031 7.5H9.79688Z" fill="#444B54"/>
<path d="M15 12.6562C14.5383 12.6562 14.0812 12.7472 13.6546 12.9239C13.2281 13.1005 12.8405 13.3595 12.5141 13.686C12.1876 14.0124 11.9287 14.4 11.752 14.8265C11.5753 15.253 11.4844 15.7102 11.4844 16.1719C11.4844 16.6336 11.5753 17.0907 11.752 17.5172C11.9287 17.9438 12.1876 18.3313 12.5141 18.6578C12.8405 18.9843 13.2281 19.2432 13.6546 19.4199C14.0812 19.5966 14.5383 19.6875 15 19.6875C15.4617 19.6875 15.9188 19.5966 16.3454 19.4199C16.7719 19.2432 17.1595 18.9843 17.4859 18.6578C17.8124 18.3313 18.0713 17.9438 18.248 17.5172C18.4247 17.0907 18.5156 16.6336 18.5156 16.1719C18.5156 15.7102 18.4247 15.253 18.248 14.8265C18.0713 14.4 17.8124 14.0124 17.4859 13.686C17.1595 13.3595 16.7719 13.1005 16.3454 12.9239C15.9188 12.7472 15.4617 12.6562 15 12.6562Z" fill="white"/>
<path d="M15 20.3906C12.6797 20.3906 10.7812 18.4922 10.7812 16.1719C10.7812 15.7734 11.0859 15.4688 11.4844 15.4688C11.8828 15.4688 12.1875 15.7734 12.1875 16.1719C12.1875 17.7188 13.4531 18.9844 15 18.9844C16.5469 18.9844 17.8125 17.7188 17.8125 16.1719C17.8125 14.625 16.5469 13.3594 15 13.3594C14.6016 13.3594 14.2969 13.0547 14.2969 12.6562C14.2969 12.2578 14.6016 11.9531 15 11.9531C17.3203 11.9531 19.2188 13.8516 19.2188 16.1719C19.2188 18.4922 17.3203 20.3906 15 20.3906Z" fill="#444B54"/>
<path d="M12.6094 14.2734C12.5625 14.2734 12.5156 14.2734 12.4688 14.25C12.4219 14.2266 12.375 14.2266 12.3281 14.2031C12.2812 14.1797 12.2344 14.1562 12.2109 14.1328C12.1641 14.1094 12.1406 14.0859 12.0938 14.0391C12.0703 14.0156 12.0234 13.9688 12 13.9219C11.9766 13.875 11.9531 13.8516 11.9297 13.8047C11.9062 13.7578 11.9062 13.7109 11.8828 13.6641C11.8828 13.6172 11.8594 13.5703 11.8594 13.5234C11.8594 13.4766 11.8594 13.4297 11.8828 13.3828C11.8828 13.3359 11.9062 13.2891 11.9297 13.2422C11.9531 13.1953 11.9766 13.1484 12 13.125C12.0234 13.0781 12.0469 13.0547 12.0938 13.0078C12.1172 12.9844 12.1641 12.9375 12.2109 12.9141C12.2578 12.8906 12.2812 12.8672 12.3281 12.8437C12.375 12.8203 12.4219 12.8203 12.4688 12.7969C12.5625 12.7734 12.6562 12.7734 12.75 12.7969C12.7969 12.7969 12.8438 12.8203 12.8906 12.8437C12.9375 12.8672 12.9844 12.8906 13.0078 12.9141C13.0547 12.9375 13.0781 12.9609 13.1016 13.0078C13.125 13.0312 13.1719 13.0781 13.1953 13.125C13.2188 13.1719 13.2422 13.1953 13.2656 13.2422C13.2891 13.2891 13.2891 13.3359 13.3125 13.3828C13.3125 13.4297 13.3359 13.4766 13.3359 13.5234C13.3359 13.5703 13.3359 13.6172 13.3125 13.6641C13.3125 13.7109 13.2891 13.7578 13.2656 13.8047C13.2422 13.8516 13.2188 13.8984 13.1953 13.9219C13.1719 13.9688 13.1484 13.9922 13.1016 14.0391C13.0781 14.0625 13.0312 14.1094 13.0078 14.1328C12.9609 14.1562 12.9375 14.1797 12.8906 14.2031C12.8438 14.2266 12.7969 14.2266 12.75 14.25C12.7031 14.2734 12.6562 14.2734 12.6094 14.2734ZM20.1562 10.0781C19.9076 10.0781 19.6692 10.1769 19.4933 10.3527C19.3175 10.5285 19.2188 10.767 19.2188 11.0156C19.2188 11.2643 19.3175 11.5027 19.4933 11.6785C19.6692 11.8544 19.9076 11.9531 20.1562 11.9531C20.4049 11.9531 20.6433 11.8544 20.8192 11.6785C20.995 11.5027 21.0938 11.2643 21.0938 11.0156C21.0938 10.767 20.995 10.5285 20.8192 10.3527C20.6433 10.1769 20.4049 10.0781 20.1562 10.0781ZM4.45312 26.3203C4.07812 26.3203 3.75 26.0156 3.75 25.6172C3.75 25.2188 4.05469 24.9141 4.45312 24.9141L25.5469 24.7969C25.9219 24.7969 26.25 25.1016 26.25 25.5C26.25 25.8984 25.9453 26.2031 25.5469 26.2031L4.45312 26.3203ZM29.0625 26.2031C28.875 26.2031 28.6875 26.1328 28.5703 25.9922C28.5469 25.9687 28.5 25.9219 28.4766 25.875C28.4531 25.8281 28.4297 25.8047 28.4062 25.7578C28.3828 25.7109 28.3828 25.6641 28.3594 25.6172C28.3594 25.5703 28.3359 25.5234 28.3359 25.4766C28.3359 25.4297 28.3359 25.3828 28.3594 25.3359C28.3594 25.2891 28.3828 25.2422 28.4062 25.1953C28.4297 25.1484 28.4531 25.1016 28.4766 25.0781C28.5 25.0312 28.5234 25.0078 28.5703 24.9609C28.5938 24.9375 28.6406 24.8906 28.6641 24.8672C28.7109 24.8437 28.7344 24.8203 28.7812 24.7969C28.8281 24.7734 28.875 24.7734 28.9219 24.75C29.0156 24.7266 29.1094 24.7266 29.2031 24.75C29.25 24.75 29.2969 24.7734 29.3438 24.7969C29.3906 24.8203 29.4375 24.8437 29.4609 24.8672C29.5078 24.8906 29.5312 24.9141 29.5547 24.9609C29.6953 25.1016 29.7656 25.2656 29.7656 25.4531C29.7656 25.5 29.7656 25.5469 29.7422 25.5937C29.7422 25.6406 29.7188 25.6875 29.6953 25.7344C29.6719 25.7812 29.6484 25.8281 29.625 25.8516C29.6016 25.8984 29.5781 25.9219 29.5312 25.9688C29.4375 26.1328 29.25 26.2031 29.0625 26.2031Z" fill="#444B54"/>
</svg>
