<svg width="30" height="30" viewBox="0 0 30 30" fill="none" xmlns="http://www.w3.org/2000/svg">
<g clip-path="url(#clip0_166_50)">
<path d="M15 28.8281C22.6172 28.8281 28.8281 22.6172 28.8281 15C28.8281 11.2969 27.3984 7.82812 24.7734 5.22656C22.1719 2.60156 18.7031 1.17188 15 1.17188C7.38281 1.17188 1.17188 7.35938 1.17188 15C1.17188 17.4375 1.80469 19.8047 3.02344 21.9141L1.71094 26.7422C1.42969 27.7734 2.36719 28.7344 3.42188 28.4531L8.41406 27.1406C10.4062 28.2422 12.6797 28.8281 15 28.8281Z" fill="white"/>
<path d="M15 26.0156C13.1719 26.0156 11.3438 25.5469 9.72656 24.6797C9.30469 24.4453 8.83594 24.3281 8.39062 24.3281C8.15625 24.3281 7.92187 24.3516 7.6875 24.4219L5.0625 25.1016L5.74219 22.6406C5.92969 21.9141 5.83594 21.1406 5.46094 20.4844C4.47656 18.8203 3.98438 16.9219 3.98438 15C3.98438 8.90625 8.92969 3.98438 15 3.98438C17.9531 3.98438 20.7188 5.13281 22.8047 7.21875C24.8672 9.28125 26.0156 12.0469 26.0156 15C26.0156 21.0703 21.0703 26.0156 15 26.0156Z" fill="#5BF979"/>
<path d="M25.2891 4.73438C22.5469 1.99219 18.8906 0.46875 15 0.46875C6.98438 0.46875 0.46875 6.98438 0.46875 15C0.46875 17.4609 1.07812 19.875 2.27344 22.0078L1.03125 26.5547C0.820313 27.2812 1.03125 28.0312 1.57031 28.5703C2.10938 29.1094 2.85938 29.3203 3.58594 29.1328L8.32031 27.8906C10.3828 28.9688 12.6797 29.5312 15.0234 29.5312C23.0391 29.5312 29.5547 23.0156 29.5547 15C29.5312 11.1328 28.0312 7.47656 25.2891 4.73438ZM15 28.125C12.8203 28.125 10.6406 27.5625 8.71875 26.5312C8.625 26.4844 8.50781 26.4375 8.39062 26.4375C8.32031 26.4375 8.27344 26.4375 8.20312 26.4609L3.21094 27.7734C2.85938 27.8672 2.625 27.6797 2.53125 27.5859C2.4375 27.4922 2.25 27.2578 2.34375 26.9062L3.65625 22.0781C3.70312 21.8906 3.67969 21.7031 3.58594 21.5391C2.46094 19.5703 1.875 17.2969 1.875 15C1.875 7.75781 7.75781 1.875 15 1.875C18.5156 1.875 21.8203 3.23437 24.2812 5.71875C26.7656 8.20312 28.1484 11.5078 28.125 15C28.125 22.2422 22.2422 28.125 15 28.125Z" fill="#444B54"/>
<path d="M21.7734 19.9453C21.4922 20.7422 20.0859 21.5391 19.4297 21.5859C18.7969 21.6328 18.2109 21.8672 15.2812 20.7188C11.7656 19.3359 9.53906 15.7266 9.375 15.4922C9.21094 15.2578 7.96875 13.6172 7.96875 11.9062C7.96875 10.1953 8.85938 9.375 9.1875 9.02344C9.51563 8.67187 9.86719 8.60156 10.1016 8.60156C10.3359 8.60156 10.5703 8.60156 10.7578 8.60156C11.0156 8.60156 11.2734 8.625 11.5313 9.1875C11.8359 9.86719 12.5156 11.5781 12.5859 11.7422C12.6797 11.9062 12.7266 12.1172 12.6094 12.3516C12.4922 12.5859 12.4453 12.7266 12.2578 12.9375C12.0938 13.1484 11.8828 13.3828 11.7422 13.5469C11.5781 13.7109 11.3906 13.8984 11.6016 14.25C11.8125 14.6016 12.4922 15.7266 13.5234 16.6406C14.8359 17.8125 15.9609 18.1875 16.3125 18.3516C16.6641 18.5156 16.8516 18.4922 17.0625 18.2578C17.2734 18.0234 17.9297 17.25 18.1641 16.8984C18.3984 16.5469 18.6328 16.6172 18.9375 16.7344C19.2656 16.8516 20.9531 17.6953 21.3047 17.8594C21.6562 18.0234 21.8906 18.1172 21.9609 18.2578C22.0547 18.4453 22.0547 19.125 21.7734 19.9453Z" fill="#006475"/>
</g>
<defs>
<clipPath id="clip0_166_50">
<rect width="30" height="30" fill="white"/>
</clipPath>
</defs>
</svg>
