<svg width="110" height="44" viewBox="0 0 110 44" fill="none" xmlns="http://www.w3.org/2000/svg">
<path d="M23.125 8.08203L29.9219 34H26.6016L22.4805 18.1602L15.3906 34.957L8.28125 18.043L4.12109 34H0.800781L7.59766 8.08203L15.3906 26.6367L23.125 8.08203ZM37.9344 8.16016L49.6922 34H46.1375L43.2273 27.6328H32.6609L29.8289 34H26.2938L37.9344 8.16016ZM37.9344 15.9531L33.9305 24.8008H41.9383L37.9344 15.9531ZM66.5523 9.95703V13.8047C63.8701 12.4896 61.4026 11.832 59.15 11.832C56.2594 11.832 53.8245 12.7695 51.8453 14.6445C49.8661 16.5065 48.8766 18.7982 48.8766 21.5195C48.8766 24.293 49.8857 26.6107 51.9039 28.4727C53.9352 30.3216 56.4742 31.2461 59.5211 31.2461C61.7346 31.2461 64.0784 30.5495 66.5523 29.1562V33.043C64.2997 34.2409 61.8583 34.8398 59.2281 34.8398C55.374 34.8398 52.0797 33.5378 49.3453 30.9336C46.6109 28.3164 45.2438 25.1654 45.2438 21.4805C45.2438 17.8607 46.5849 14.7617 49.2672 12.1836C51.9625 9.60547 55.2047 8.31641 58.9938 8.31641C61.4286 8.31641 63.9482 8.86328 66.5523 9.95703ZM66.3422 9.11719H71.7328C74.4151 9.11719 76.5961 9.78776 78.2758 11.1289C79.9685 12.457 80.8148 14.1628 80.8148 16.2461C80.8148 17.9128 80.268 19.3841 79.1742 20.6602C78.0805 21.9362 76.3747 22.8346 74.057 23.3555L81.3031 34H77.4164L70.5023 23.7656H69.7406V34H66.3422V9.11719ZM69.7406 12.125V20.7969C74.7536 20.901 77.2602 19.4492 77.2602 16.4414C77.2602 15.3867 76.9672 14.5273 76.3812 13.8633C75.7953 13.1862 75.0141 12.7305 74.0375 12.4961C73.0609 12.2487 71.6286 12.125 69.7406 12.125ZM79.9797 21.4023C79.9797 17.8086 81.3339 14.7292 84.0422 12.1641C86.7505 9.59896 90.0057 8.31641 93.8078 8.31641C97.5188 8.31641 100.715 9.61198 103.398 12.2031C106.08 14.7812 107.421 17.8477 107.421 21.4023C107.421 25.1654 106.093 28.349 103.437 30.9531C100.793 33.5443 97.5448 34.8398 93.6906 34.8398C89.8885 34.8398 86.6529 33.5312 83.9836 30.9141C81.3143 28.2969 79.9797 25.1263 79.9797 21.4023ZM103.808 21.5586C103.808 18.8112 102.818 16.5 100.839 14.625C98.8599 12.737 96.425 11.793 93.5344 11.793C90.787 11.793 88.4302 12.75 86.4641 14.6641C84.5109 16.5781 83.5344 18.8763 83.5344 21.5586C83.5344 24.2799 84.537 26.5846 86.5422 28.4727C88.5604 30.3477 91.0279 31.2852 93.9445 31.2852C96.6268 31.2852 98.938 30.3281 100.878 28.4141C102.831 26.487 103.808 24.2018 103.808 21.5586Z" fill="black"/>
<ellipse cx="95.5" cy="21.5" rx="12.5" ry="10.5" fill="white"/>
<circle cx="106" cy="19" r="4" fill="black"/>
<circle cx="96" cy="19" r="4" fill="black"/>
<circle cx="94.5" cy="17.5" r="1.5" fill="white"/>
<circle cx="104.5" cy="17.5" r="1.5" fill="white"/>
</svg>
