<svg width="218" height="218" viewBox="0 0 218 218" fill="none" xmlns="http://www.w3.org/2000/svg">
<path fill-rule="evenodd" clip-rule="evenodd" d="M109 205.889C162.513 205.889 205.889 162.513 205.889 109C205.889 55.4871 162.513 12.1111 109 12.1111C55.4871 12.1111 12.1111 55.4871 12.1111 109C12.1111 162.513 55.4871 205.889 109 205.889ZM109 218C169.198 218 218 169.198 218 109C218 48.8017 169.198 0 109 0C48.8017 0 0 48.8017 0 109C0 169.198 48.8017 218 109 218Z" fill="black"/>
<path d="M84.7778 90.8333C84.7778 104.216 77.9956 115.056 69.6389 115.056C61.2822 115.056 54.5 104.216 54.5 90.8333C54.5 77.4505 61.2822 66.6111 69.6389 66.6111C77.9956 66.6111 84.7778 77.4505 84.7778 90.8333ZM163.5 90.8333C163.5 104.216 156.718 115.056 148.361 115.056C140.004 115.056 133.222 104.216 133.222 90.8333C133.222 77.4505 140.004 66.6111 148.361 66.6111C156.718 66.6111 163.5 77.4505 163.5 90.8333Z" fill="black"/>
<path fill-rule="evenodd" clip-rule="evenodd" d="M60.5557 151.389C60.5557 149.783 61.1937 148.243 62.3293 147.107C63.4649 145.971 65.0052 145.333 66.6112 145.333H151.389C152.995 145.333 154.535 145.971 155.671 147.107C156.807 148.243 157.445 149.783 157.445 151.389C157.445 152.995 156.807 154.535 155.671 155.671C154.535 156.806 152.995 157.444 151.389 157.444H66.6112C65.0052 157.444 63.4649 156.806 62.3293 155.671C61.1937 154.535 60.5557 152.995 60.5557 151.389Z" fill="black"/>
</svg>
