<svg width="218" height="218" viewBox="0 0 218 218" fill="none" xmlns="http://www.w3.org/2000/svg">
<path d="M49.0426 138.067C59.0758 138.067 67.2093 129.933 67.2093 119.9C67.2093 109.867 59.0758 101.733 49.0426 101.733C39.0095 101.733 30.876 109.867 30.876 119.9C30.876 129.933 39.0095 138.067 49.0426 138.067Z" fill="black"/>
<path d="M72.6377 71.1407C74.6033 69.4366 69.1097 63.6524 67.5001 65.0585C61.6908 69.9622 54.8717 73.5247 47.5285 75.4923C40.1852 77.4598 32.4984 77.784 25.0156 76.4417C22.9155 76.0311 21.0625 83.7847 23.6167 84.2752C32.2508 85.8251 41.1205 85.4517 49.5938 83.1814C58.067 80.9111 65.9352 76.7999 72.6377 71.1407ZM156.644 75.8894C141.5 78.6072 125.924 74.4361 114.167 64.5062C112.557 63.0928 107.063 68.8844 109.036 70.5884C115.739 76.2474 123.607 80.3585 132.08 82.6288C140.554 84.899 149.423 85.2726 158.057 83.7229C160.612 83.2324 158.751 75.4752 156.644 75.8894ZM131.069 164.699C110.119 159.071 87.2909 163.144 69.5566 175.65C65.1784 178.807 73.3825 190.281 77.7389 187.102C89.4491 178.862 108.084 173.172 127.37 178.266C132.54 179.636 136.584 166.247 131.069 164.699Z" fill="black"/>
<path d="M132.61 138.067C142.643 138.067 150.777 129.933 150.777 119.9C150.777 109.867 142.643 101.733 132.61 101.733C122.577 101.733 114.443 109.867 114.443 119.9C114.443 129.933 122.577 138.067 132.61 138.067Z" fill="black"/>
<path d="M109 0C48.7884 0 0 48.7884 0 109C0 169.212 48.7884 218 109 218C169.212 218 218 169.212 218 109C218 48.7884 169.212 0 109 0ZM109 208.917C53.9041 208.917 9.08333 164.096 9.08333 109C9.08333 53.9041 53.9041 9.08333 109 9.08333C164.092 9.08333 208.917 53.9041 208.917 109C208.917 113.93 208.542 118.774 207.848 123.519C204.804 102.954 187.175 84.4023 187.175 84.4023C187.175 84.4023 166 106.613 166 129.365C166 152.447 189.228 158.417 201.272 147.303C186.212 183.44 150.533 208.917 109 208.917Z" fill="black"/>
</svg>
