<svg width="20" height="19" viewBox="0 0 20 19" fill="none" xmlns="http://www.w3.org/2000/svg">
<path d="M15.3136 9.78487L12.065 13.7229C11.8717 13.9565 11.7586 14.2701 11.7483 14.6007C11.7381 14.9313 11.8315 15.2543 12.0097 15.5049C12.1879 15.7554 12.4378 15.9149 12.709 15.9512C12.9803 15.9875 13.2528 15.898 13.4718 15.7007L13.5928 15.5732L18.6846 9.40258L18.7826 9.26468L18.8402 9.15994L18.9122 8.99586L18.9597 8.83701L18.9813 8.71831L18.9957 8.61008L19 8.446L18.9942 8.34301L18.9726 8.17892L18.9294 8.00436L18.8618 7.8333L18.8114 7.73729C18.774 7.67041 18.7316 7.60788 18.6846 7.55051L18.7826 7.68841C18.7526 7.63976 18.7199 7.59369 18.6846 7.55051L13.5928 1.37986C13.3998 1.14777 13.1418 1.01242 12.8701 1.00082C12.5985 0.989226 12.3332 1.10223 12.1272 1.3173C11.9213 1.53236 11.7898 1.83365 11.7591 2.16104C11.7283 2.48844 11.8005 2.81786 11.9613 3.08355L12.065 3.23018L15.3136 7.16648L10 7.16648C4.74256 7.16648 1.16992 10.7921 1.00576 15.9608L1 16.3308C1 16.678 1.11379 17.011 1.31633 17.2566C1.51887 17.5021 1.79357 17.64 2.08 17.64C2.36644 17.64 2.64114 17.5021 2.84368 17.2566C3.04622 17.011 3.16 16.678 3.16 16.3308C3.16 12.6162 5.59648 9.94721 9.62992 9.79185L10 9.78487L15.3136 9.78487Z" fill="black"/>
<path d="M18.6846 7.55051C18.7316 7.60788 18.774 7.67041 18.8114 7.73729L18.8618 7.8333L18.9294 8.00437L18.9726 8.17892L18.9942 8.34301L19 8.446L18.9957 8.61008L18.9813 8.71831L18.9597 8.83701L18.9122 8.99586L18.8402 9.15994L18.7826 9.26468L18.6846 9.40258L13.5928 15.5732L13.4718 15.7007C13.2528 15.898 12.9803 15.9875 12.709 15.9512C12.4378 15.9149 12.1879 15.7554 12.0097 15.5049C11.8315 15.2543 11.7381 14.9313 11.7483 14.6007C11.7586 14.2701 11.8717 13.9565 12.065 13.7229L15.3136 9.78487L10 9.78487L9.62992 9.79185C5.59648 9.94721 3.16 12.6162 3.16 16.3308C3.16 16.678 3.04622 17.011 2.84368 17.2566C2.64114 17.5021 2.36644 17.64 2.08 17.64C1.79357 17.64 1.51887 17.5021 1.31633 17.2566C1.11379 17.011 1 16.678 1 16.3308L1.00576 15.9608C1.16992 10.7921 4.74256 7.16648 10 7.16648L15.3136 7.16648L12.065 3.23018L11.9613 3.08355C11.8005 2.81786 11.7283 2.48844 11.7591 2.16105C11.7898 1.83365 11.9213 1.53236 12.1272 1.3173C12.3332 1.10224 12.5985 0.989226 12.8701 1.00082C13.1418 1.01242 13.3998 1.14777 13.5928 1.37986L18.6846 7.55051ZM18.6846 7.55051L18.7826 7.68841C18.7526 7.63976 18.7199 7.59369 18.6846 7.55051Z" stroke="black"/>
</svg>
